<?xml version="1.0" standalone="no"?>
<!DOCTYPE svg PUBLIC "-//W3C//DTD SVG 20010904//EN"
 "http://www.w3.org/TR/2001/REC-SVG-20010904/DTD/svg10.dtd">
<svg version="1.0" xmlns="http://www.w3.org/2000/svg"
 width="3264.000000pt" height="3264.000000pt" viewBox="0 0 3264.000000 3264.000000"
 preserveAspectRatio="xMidYMid meet">

<g transform="translate(0.000000,3264.000000) scale(0.100000,-0.100000)"
fill="#000000" stroke="none">
<path d="M1390 19900 c-137 -22 -200 -38 -320 -85 -581 -224 -969 -710 -1052
-1316 -19 -139 -19 -3894 0 -4024 53 -360 212 -682 461 -932 241 -243 523
-389 891 -460 92 -17 598 -18 14950 -18 12544 0 14867 2 14935 14 386 66 689
222 940 482 204 212 331 443 412 749 l28 105 0 2075 0 2075 -22 85 c-67 257
-152 437 -297 628 -151 200 -371 376 -611 487 -170 79 -297 116 -484 140 -101
13 -1838 15 -14915 14 -14193 -1 -14806 -2 -14916 -19z m3317 -1127 c17 -8 39
-23 48 -33 12 -13 232 -600 235 -626 0 -1 -78 -4 -172 -6 -154 -4 -182 -8
-251 -32 -128 -43 -224 -114 -295 -218 -39 -57 -66 -123 -91 -230 -35 -148
-68 -288 -138 -587 l-68 -293 -55 -25 c-202 -90 -300 -172 -382 -323 -57 -103
-73 -175 -73 -320 0 -105 4 -147 18 -187 10 -29 20 -53 22 -53 2 0 68 25 148
55 79 30 146 55 149 55 3 0 8 -71 11 -157 8 -212 45 -402 112 -572 14 -36 23
-66 21 -68 -3 -3 -310 68 -441 103 -210 55 -465 210 -626 380 -183 193 -248
326 -458 929 -88 253 -215 615 -282 805 -67 190 -124 364 -126 387 -6 48 33
130 77 165 45 36 333 204 481 282 544 284 1151 479 1749 561 256 35 324 37
387 8z m543 -1019 c662 -59 1300 -231 1930 -518 81 -37 157 -79 176 -97 50
-48 86 -123 86 -178 0 -25 -36 -192 -80 -371 -45 -179 -130 -525 -191 -770
-60 -245 -121 -476 -135 -513 -114 -300 -340 -551 -637 -706 -52 -27 -229
-100 -394 -161 -165 -61 -372 -138 -460 -171 -179 -67 -221 -76 -284 -59 -59
16 -86 42 -458 451 -329 362 -395 445 -468 589 -93 185 -133 348 -142 571 -8
207 1 264 122 774 57 243 122 522 154 660 100 429 100 431 163 478 18 13 47
29 63 36 37 14 322 6 555 -15z m11067 -299 c21 -9 46 -23 56 -33 72 -64 79
-210 14 -281 -51 -55 -168 -78 -240 -47 -39 16 -82 61 -96 99 -25 65 -7 172
37 221 46 51 157 71 229 41z m-5904 -30 c177 -27 388 -111 408 -163 6 -15 9
-101 7 -210 -2 -149 -6 -185 -18 -192 -8 -6 -60 -9 -115 -8 l-100 3 -5 119 -5
119 -58 29 c-133 68 -314 94 -440 64 -151 -36 -249 -112 -316 -247 -64 -127
-76 -199 -75 -449 0 -199 2 -222 27 -312 80 -299 255 -438 552 -438 112 0 202
18 273 54 l49 25 -5 111 c-4 88 -2 114 9 121 20 12 186 11 210 -1 18 -10 19
-23 19 -210 0 -163 -3 -201 -15 -214 -21 -20 -159 -72 -263 -99 -76 -19 -114
-21 -302 -21 -191 0 -224 2 -295 22 -90 25 -203 76 -269 121 -138 95 -246 262
-295 456 -77 304 -45 670 81 905 175 329 516 479 941 415z m10732 0 c106 -16
221 -50 320 -94 99 -45 95 -34 95 -260 0 -140 -3 -200 -12 -209 -19 -19 -202
-16 -218 3 -9 11 -10 40 -5 110 8 110 6 114 -66 151 -125 63 -343 89 -464 55
-203 -57 -320 -213 -361 -481 -35 -233 -6 -490 75 -665 69 -148 181 -241 341
-281 130 -33 378 -4 459 52 23 17 23 19 17 121 -5 75 -4 108 5 119 15 18 199
20 217 2 17 -17 17 -411 0 -426 -24 -19 -163 -69 -258 -93 -84 -21 -119 -23
-305 -24 -188 0 -219 2 -295 23 -250 68 -423 214 -517 435 -98 233 -117 561
-48 834 72 281 247 486 499 584 151 58 325 73 521 44z m-5737 -137 c9 -9 12
-68 12 -205 l0 -193 150 0 c137 0 150 -2 160 -19 13 -24 13 -171 0 -191 -7
-12 -39 -16 -160 -18 l-151 -3 3 -412 c3 -393 4 -414 23 -447 41 -70 149 -91
260 -49 31 11 62 18 69 16 18 -7 78 -161 70 -181 -18 -48 -206 -90 -373 -84
-100 3 -124 8 -176 32 -71 32 -109 66 -137 121 -48 92 -50 116 -55 573 l-5
432 -77 0 c-110 0 -112 3 -109 125 l3 100 93 3 92 3 0 185 c0 109 4 193 10
205 10 17 22 19 148 19 94 0 142 -4 150 -12z m8172 -7 c6 -12 10 -96 10 -205
l0 -186 150 0 150 0 11 -27 c12 -31 9 -177 -4 -190 -5 -4 -76 -9 -158 -11
l-150 -3 3 -412 c3 -448 3 -448 60 -490 43 -32 132 -35 219 -7 41 13 74 19 79
14 17 -17 70 -164 64 -178 -8 -20 -93 -55 -178 -73 -94 -20 -290 -13 -361 13
-66 23 -144 102 -168 169 -29 84 -37 204 -37 593 l0 372 -78 0 c-111 0 -113 3
-110 125 l3 100 93 3 92 3 0 185 c0 109 4 193 10 205 10 17 23 19 150 19 127
0 140 -2 150 -19z m-11527 -384 l37 -16 0 -210 c0 -177 -2 -212 -16 -225 -12
-12 -37 -16 -107 -16 -145 0 -138 -5 -136 109 l1 96 -57 -2 c-142 -5 -242
-117 -265 -297 -5 -39 -10 -187 -10 -328 l0 -258 159 0 c195 0 191 3 191 -114
0 -50 -5 -87 -12 -94 -9 -9 -115 -12 -415 -12 -468 0 -427 -12 -421 122 2 56
8 82 18 88 8 5 50 10 93 10 l77 0 0 455 0 455 -79 0 c-106 0 -111 6 -111 119
0 54 4 91 12 99 19 19 412 17 431 -2 7 -8 20 -55 27 -105 7 -50 16 -91 20 -91
4 0 12 11 18 25 18 40 101 124 152 153 88 52 135 63 250 59 64 -3 120 -11 143
-20z m1042 -7 c81 -31 121 -58 181 -121 57 -60 104 -152 129 -247 32 -126 39
-356 11 -374 -6 -4 -197 -8 -423 -8 l-413 0 0 -33 c0 -54 38 -188 65 -228 38
-58 86 -97 145 -120 109 -41 285 -35 415 16 59 23 79 28 102 26 13 -1 73 -140
73 -170 0 -25 -26 -43 -111 -75 -143 -54 -417 -74 -558 -41 -225 53 -371 212
-422 459 -21 103 -26 316 -9 406 48 253 201 443 410 509 93 29 103 30 230 26
90 -2 128 -8 175 -25z m1278 15 c176 -37 285 -145 317 -315 6 -30 10 -227 10
-446 l0 -394 68 0 c40 0 73 -5 80 -12 8 -8 12 -46 12 -104 0 -75 -3 -93 -16
-98 -9 -3 -96 -6 -194 -6 -130 0 -180 3 -188 13 -6 6 -13 30 -17 52 -15 95 -9
92 -73 34 -108 -99 -218 -134 -397 -127 -98 4 -119 8 -176 35 -121 56 -180
142 -200 290 -24 180 42 321 192 410 98 58 302 103 469 103 36 0 83 3 104 7
l39 6 -6 103 c-11 188 -65 245 -237 247 -69 1 -94 -3 -131 -21 -53 -26 -92
-76 -108 -138 -6 -23 -18 -45 -27 -48 -20 -8 -198 -8 -218 0 -34 13 -11 144
39 224 34 53 101 110 169 140 53 24 83 32 191 54 50 10 236 4 298 -9z m4639
-17 c212 -79 329 -290 332 -603 0 -60 -2 -118 -6 -127 -7 -17 -37 -18 -428
-18 -484 0 -432 15 -404 -117 20 -98 51 -158 106 -210 67 -61 128 -78 273 -77
111 0 127 3 222 36 80 28 105 33 117 24 8 -6 29 -46 46 -90 29 -74 30 -80 14
-97 -26 -28 -162 -77 -266 -95 -67 -12 -133 -15 -238 -12 -125 4 -155 8 -219
31 -186 67 -291 186 -353 402 -20 70 -23 102 -23 260 0 205 10 254 76 393 72
150 218 273 369 310 25 6 54 14 65 16 11 3 72 3 135 2 92 -3 128 -9 182 -28z
m3529 18 c177 -38 279 -136 315 -305 10 -50 14 -160 14 -458 l0 -393 61 0 c94
0 99 -5 99 -108 0 -55 -4 -92 -12 -100 -13 -13 -364 -17 -384 -4 -11 7 -15 23
-29 105 l-6 38 -57 -52 c-108 -99 -218 -134 -397 -127 -97 4 -119 8 -175 34
-89 42 -124 74 -161 149 -60 122 -62 281 -4 394 77 153 270 243 554 257 58 2
130 7 160 10 l54 6 -6 99 c-11 172 -57 233 -187 250 -132 16 -229 -21 -269
-103 -11 -25 -21 -52 -21 -60 0 -38 -27 -48 -133 -48 -56 0 -108 4 -116 9 -11
7 -13 24 -8 71 16 178 172 311 402 343 71 10 245 6 306 -7z m2350 0 c186 -40
313 -175 370 -393 25 -96 38 -318 20 -351 l-12 -22 -420 0 -421 0 7 -42 c22
-149 56 -230 122 -288 66 -57 131 -75 273 -74 105 0 124 4 217 36 80 28 105
33 117 24 21 -16 77 -156 71 -176 -7 -22 -100 -64 -202 -91 -111 -30 -352 -38
-456 -15 -289 64 -438 275 -454 641 -15 357 131 626 396 726 106 40 254 50
372 25z m1305 -7 c80 -24 153 -66 206 -116 l37 -36 17 59 c9 33 21 65 26 72 8
9 61 12 204 12 181 0 194 -1 204 -19 13 -25 13 -171 0 -191 -7 -11 -33 -16
-99 -18 l-90 -4 -3 -666 c-4 -593 -6 -674 -21 -727 -58 -202 -174 -316 -378
-372 -51 -14 -101 -18 -244 -17 -161 1 -190 3 -279 27 -136 37 -171 55 -169
88 2 42 55 180 70 186 8 3 48 -6 91 -20 113 -37 206 -50 313 -45 115 5 184 32
234 91 57 66 68 111 73 305 l4 173 -46 -49 c-92 -98 -205 -136 -386 -130 -137
5 -200 26 -293 96 -155 119 -227 333 -214 642 14 327 137 546 357 636 83 33
127 42 231 43 62 1 106 -5 155 -20z m1679 -9 c101 -32 136 -53 208 -120 79
-73 128 -163 159 -286 31 -126 31 -372 0 -489 -87 -322 -310 -495 -639 -495
-320 1 -521 160 -584 463 -22 105 -27 328 -9 417 42 220 158 384 330 469 118
58 188 71 340 67 94 -3 143 -9 195 -26z m1590 10 c16 -6 33 -17 37 -23 4 -7 8
-103 8 -214 0 -170 -2 -204 -16 -217 -12 -13 -38 -16 -117 -16 -56 0 -109 5
-117 10 -12 7 -14 29 -12 106 l4 97 -59 -7 c-109 -13 -182 -67 -229 -171 -36
-78 -44 -160 -44 -447 l0 -268 159 0 c194 0 191 2 191 -106 0 -125 42 -114
-425 -114 -467 0 -425 -11 -425 114 0 99 7 106 111 106 l79 0 0 455 0 455 -76
0 c-112 0 -114 2 -114 113 0 59 4 97 12 105 14 14 404 17 426 3 7 -4 20 -51
29 -104 16 -97 26 -116 39 -75 9 30 100 125 148 155 80 51 132 63 251 59 61
-2 123 -9 140 -16z m-13047 -22 c9 -9 12 -149 12 -570 l0 -558 93 0 c59 0 97
-4 105 -12 18 -18 16 -182 -2 -197 -9 -8 -114 -11 -367 -9 l-354 3 -3 94 c-2
60 1 98 9 107 8 10 37 14 105 14 l94 0 0 454 0 454 -84 3 c-46 2 -88 8 -93 12
-13 14 -16 172 -4 196 11 20 18 21 244 21 168 0 236 -3 245 -12z m680 3 c8 -4
85 -237 173 -516 87 -280 160 -510 162 -511 2 -2 66 179 143 401 l141 405 -72
0 c-103 0 -106 4 -103 125 l3 100 229 3 c203 2 231 0 248 -14 10 -10 18 -26
18 -36 0 -23 -465 -1254 -486 -1285 -14 -22 -20 -23 -163 -23 -128 0 -150 2
-163 18 -8 9 -97 258 -198 552 -100 294 -185 541 -187 548 -4 8 -28 12 -75 12
-105 0 -108 3 -108 113 0 59 4 97 12 105 14 14 404 17 426 3z m12934 -8 c8
-10 84 -234 168 -498 84 -264 156 -487 161 -495 7 -13 8 -13 13 0 50 138 266
764 266 771 0 5 -31 9 -68 9 -100 0 -103 5 -100 125 l3 100 229 3 c203 2 231
0 248 -14 10 -10 18 -25 18 -35 0 -28 -625 -1651 -665 -1728 -89 -168 -210
-241 -404 -241 -110 0 -271 35 -311 68 l-20 17 30 92 c17 50 38 94 47 97 8 4
45 -3 82 -14 86 -27 175 -35 228 -21 72 20 124 103 198 316 l28 80 -201 560
c-110 308 -204 568 -207 578 -6 14 -20 17 -77 17 -106 0 -108 2 -108 119 0 54
3 101 7 104 3 4 99 7 213 7 185 0 209 -2 222 -17z"/>
<path d="M3020 17263 c-174 -60 -251 -253 -164 -413 53 -97 132 -144 244 -145
62 0 85 5 132 28 112 55 171 151 172 278 0 64 -4 83 -27 121 -34 59 -105 121
-155 136 -53 16 -147 14 -202 -5z"/>
<path d="M5034 16872 c-222 -108 -223 -407 -1 -524 62 -33 184 -32 250 2 212
108 213 410 3 517 -36 19 -71 27 -121 30 -62 4 -77 1 -131 -25z"/>
<path d="M6425 16581 c-93 -24 -182 -105 -211 -193 -11 -35 -15 -70 -11 -113
12 -155 131 -265 285 -265 115 0 206 55 257 155 26 50 30 70 30 134 0 90 -26
152 -88 208 -71 64 -182 95 -262 74z"/>
<path d="M4985 15933 c-4 -10 -9 -61 -12 -114 -7 -124 14 -223 72 -335 97
-189 232 -293 454 -351 204 -53 418 -8 585 123 72 57 138 141 180 229 33 69
59 145 52 153 -3 3 -1310 312 -1320 312 -2 0 -7 -8 -11 -17z"/>
<path d="M12790 16677 c-64 -18 -113 -50 -144 -96 -32 -46 -66 -148 -66 -197
l0 -34 281 0 282 0 -7 72 c-11 119 -66 212 -144 245 -48 20 -149 25 -202 10z"/>
<path d="M14134 16135 c-39 -7 -90 -21 -115 -32 -87 -39 -138 -129 -125 -222
14 -103 83 -153 210 -153 135 0 233 47 276 133 17 32 20 59 20 164 l0 125 -97
-1 c-54 0 -130 -7 -169 -14z"/>
<path d="M18707 16680 c-59 -15 -91 -36 -135 -85 -44 -50 -69 -111 -79 -192
l-6 -53 283 0 283 0 -6 68 c-11 124 -55 205 -131 242 -50 24 -153 34 -209 20z"/>
<path d="M22305 16135 c-127 -23 -190 -62 -226 -140 -38 -83 -10 -199 58 -238
77 -44 228 -39 318 12 31 17 62 46 83 75 l32 48 0 129 0 129 -97 -1 c-54 0
-129 -7 -168 -14z"/>
<path d="M24630 16672 c-103 -30 -176 -131 -195 -269 l-7 -53 284 0 284 0 -7
75 c-14 144 -78 230 -190 254 -66 14 -102 13 -169 -7z"/>
<path d="M26035 16669 c-127 -17 -214 -107 -250 -261 -9 -41 -15 -115 -15
-208 0 -219 26 -315 107 -392 44 -43 76 -57 157 -68 111 -16 209 20 284 105
68 77 72 101 72 415 l0 276 -32 30 c-92 86 -199 120 -323 103z"/>
<path d="M27495 16666 c-134 -62 -195 -222 -182 -481 10 -194 50 -317 129
-392 48 -46 100 -64 188 -66 68 -1 84 2 136 28 113 58 163 174 171 397 11 291
-45 451 -181 514 -72 33 -190 34 -261 0z"/>
</g>
</svg>
